<svg xmlns="http://www.w3.org/2000/svg" version="1.1" xmlns:xlink="http://www.w3.org/1999/xlink" xmlns:svgjs="http://svgjs.dev/svgjs" width="1000" height="834" viewBox="0 0 1000 834"><g transform="matrix(1,0,0,1,0.28482495153383525,0.3382753364014093)"><svg viewBox="0 0 296 247" data-background-color="#ffffff" preserveAspectRatio="xMidYMid meet" height="834" width="1000" xmlns="http://www.w3.org/2000/svg" xmlns:xlink="http://www.w3.org/1999/xlink"><g id="tight-bounds" transform="matrix(1,0,0,1,-0.08430818565400955,-0.09997365579206985)"><svg viewBox="0 0 296.168616371308 247.2" height="247.2" width="296.168616371308"><g><svg viewBox="0 0 296.168616371308 247.2" height="247.2" width="296.168616371308"><g><svg viewBox="0 0 296.168616371308 247.2" height="247.2" width="296.168616371308"><g id="textblocktransform"><svg viewBox="0 0 296.168616371308 247.2" height="247.2" width="296.168616371308" id="textblock"><g><svg viewBox="0 0 296.168616371308 247.2" height="247.2" width="296.168616371308"><path d="M295.475 53.02C294.083 27.36 290.115 20.227 290.115 20.227 277.932-6.202 262.727-0.506 249.068 3.292 224.953 3.446 200.935 9.091 176.875 12.119 126.374 12.581 75.442 4.986 25.192 23.717 20.472 29.464-4.897 24.846 0.84 56.304 2.343 69.39 7.829 83.913 7.662 95.922 8.414 98.026 9.458 93.202 9.904 96.23 11.463 104.39 14.011 100.541 16.1 105.365 13.19 118.246 15.278 128.971 17.269 140.21 13.761 143.135 9.263 141.749 7.244 151.449 7.036 158.479 5.908 157.145 4.669 156.837 3.764 156.632 1.94 157.402 2.246 159.608 3.29 167.152-1.193 171.514 1.619 178.904-0.316 186.91 2.956 193.838 2.51 202.511 2.455 204.255 2.761 205.744 3.248 206.154 5.406 208.361 2.26 212.672 2.594 217.342 24.732 249.262 48.75 227.195 71.432 241.872 77.321 231.608 72.894 245.516 75.247 243.36 77.085 240.846 78.421 251.263 80.496 245.362 80.816 243.668 80.329 239.665 81.471 240.435 82.069 240.846 82.598 240.743 82.682 238.382 82.807 234.841 81.707 237.048 81.415 235.201 84.576 225.861 83.796 248.081 86.762 247.158 86.622 244.438 85.759 240.538 87.527 241.051 89.282 237.151 89.337 233.918 90.897 242.693 90.953 244.592 91.231 245.926 91.677 246.85 96.55 237.305 101.395 250.237 106.505 245.926 109.638 241.205 112.645 248.492 115.82 246.696 116.934 245.259 118.062 242.693 119.134 247.004 132.264 247.928 146.257 244.079 158.704 247.158 191.968 241.41 227.515 249.518 262.588 241.923 270.858 238.998 279.449 234.841 287.511 231.506 287.511 231.506 294.041 222.371 294.041 181.316S295.433 145.393 295.642 112.703C295.851 80.013 296.826 78.679 295.433 53.02Z" opacity="1" fill="#ee3e38" data-fill-palette-color="tertiary"></path><g transform="matrix(1,0,0,1,55.76832,26.230666666666668)"><svg width="184.631976371308" viewBox="1.83 -38.09 36.57 38.580000000000005" height="194.73866666666666" data-palette-color="#ffffff"><path d="M13.79-0.29L13.79-0.29Q12.55 0.49 10.96 0.49 9.38 0.49 8.13-0.29L8.13-0.29Q6.88 0.49 5.82 0.49 4.76 0.49 4.08 0.31 3.39 0.12 2.88-0.2L2.88-0.2Q1.83-0.83 1.83-1.78L1.83-1.78Q1.83-2.27 2.1-2.64L2.1-2.64Q2.64-2.22 3.47-2.22L3.47-2.22Q5.64-2.22 6.47-4.08L6.47-4.08 6.47-16.02Q6.47-17.14 6.01-17.68L6.01-17.68Q5.27-18.58 3.49-19.46L3.49-19.46Q5.15-20.21 5.64-20.8L5.64-20.8Q6.47-21.75 6.47-22.95L6.47-22.95 6.47-33.25Q5.64-35.13 3.47-35.13L3.47-35.13Q2.64-35.13 2.1-34.72L2.1-34.72Q1.83-35.08 1.83-35.56 1.83-36.04 2.11-36.45 2.39-36.87 2.88-37.16L2.88-37.16Q4-37.84 5.46-37.84 6.91-37.84 8.13-37.04L8.13-37.04Q9.4-37.84 10.96-37.84 12.52-37.84 13.79-37.04L13.79-37.04Q16.55-38.09 19.91-38.09 23.27-38.09 25.54-37.48 27.81-36.87 29.44-35.74L29.44-35.74Q32.74-33.47 33.54-29.42L33.54-29.42Q33.86-27.61 35.86-26.68L35.86-26.68Q33.96-25.61 33.37-23.27L33.37-23.27Q32.18-18.43 27.39-17.24L27.39-17.24Q29.86-16.58 31.42-14.53L31.42-14.53Q33.03-12.4 33.03-9.52L33.03-9.52 33.03-7.08Q33.03-3.56 35.3-2.54L35.3-2.54Q35.99-2.22 36.79-2.22 37.6-2.22 38.13-2.64L38.13-2.64Q38.4-2.27 38.4-1.79 38.4-1.32 38.16-0.9 37.92-0.49 37.5-0.2L37.5-0.2Q36.62 0.49 35.45 0.49 34.28 0.49 33.15-0.15L33.15-0.15Q31.1 0.98 29.32 0.07L29.32 0.07Q28.64 0.49 27.88 0.49 27.12 0.49 26.43 0.15 25.73-0.2 25.2-0.98L25.2-0.98Q24.05-2.66 24.05-6.15L24.05-6.15 24.05-7.96Q24.05-13.6 20.83-15.28L20.83-15.28Q19.75-15.84 18.31-15.84L18.31-15.84 15.45-15.84 15.45-3.96Q16.11-2.22 17.97-2.22L17.97-2.22Q18.8-2.22 19.34-2.64L19.34-2.64Q19.6-2.27 19.6-1.56 19.6-0.85 18.84-0.18 18.07 0.49 16.53 0.49 14.99 0.49 13.79-0.29ZM20.14-34.84L20.14-34.84Q15.45-34.84 15.45-31.2L15.45-31.2 15.45-21.22Q15.45-19.95 16.46-19.51L16.46-19.51Q17.41-19.09 19.27-19.09 21.14-19.09 21.89-19.3 22.63-19.51 23.17-20.02L23.17-20.02Q24.27-21.07 24.27-23.54L24.27-23.54 24.27-30.66Q24.27-33.72 21.73-34.57L21.73-34.57Q20.97-34.84 20.14-34.84ZM25.9-33.28L25.9-33.28Q26.66-31.57 26.66-27.81L26.66-27.81Q26.66-21.34 26.05-20.07L26.05-20.07Q27.39-20.34 27.98-23.66L27.98-23.66 28.17-24.66Q28.44-26.25 29.74-26.68L29.74-26.68Q28.78-27 28.52-27.44L28.52-27.44Q28.22-27.95 27.99-29.19 27.76-30.42 27.51-31.18 27.27-31.93 27-32.37L27-32.37Q26.54-33.15 25.9-33.28ZM8.81-9.64L8.81-6.47Q10.03-6.93 10.16-9.67L10.16-9.67Q10.3-12.4 10.3-17.24 10.3-22.07 10.29-23.67 10.28-25.27 10.25-26.25L10.25-26.25Q10.18-29.13 9.7-29.72 9.23-30.32 8.81-30.52L8.81-30.52Q8.81-22.02 8.52-20.85L8.52-20.85Q8.18-19.87 6.86-19.46L6.86-19.46Q8.33-18.95 8.52-18.21L8.52-18.21Q8.81-17.04 8.81-9.64L8.81-9.64ZM25.66-13.16L25.66-13.16Q26.64-12.06 26.64-10.47L26.64-10.47 26.64-7.25Q26.64-3.2 28.25-2.93L28.25-2.93Q28.69-2.86 29.1-2.95L29.1-2.95Q28.22-4.32 28.22-5.83L28.22-5.83 28.22-9.25Q28.22-11.18 27.69-11.99L27.69-11.99Q26.76-13.35 25.66-13.16Z" opacity="1" transform="matrix(1,0,0,1,0,0)" fill="#ffffff" class="wordmark-text-0" data-fill-palette-color="quaternary" id="text-0"></path></svg></g></svg></g></svg></g></svg></g><g></g></svg></g><defs></defs></svg><rect width="296.168616371308" height="247.2" fill="none" stroke="none" visibility="hidden"></rect></g></svg></g></svg>